<?xml version="1.0" encoding="UTF-8" standalone="no"?>
<!DOCTYPE svg PUBLIC "-//W3C//DTD SVG 1.1//EN"
 "http://www.w3.org/Graphics/SVG/1.1/DTD/svg11.dtd">
<!-- Generated by graphviz version 10.0.1 (20240210.2158)
 -->
<!-- Title: example Pages: 1 -->
<svg width="295pt" height="342pt"
 viewBox="0.00 0.00 294.63 341.76" xmlns="http://www.w3.org/2000/svg" xmlns:xlink="http://www.w3.org/1999/xlink">
<g id="graph0" class="graph" transform="scale(1 1) rotate(0) translate(4 337.76)">
<title>example</title>
<polygon fill="white" stroke="none" points="-4,4 -4,-337.76 290.63,-337.76 290.63,4 -4,4"/>
<!-- 1 -->
<g id="node1" class="node">
<title>1</title>
<ellipse fill="none" stroke="black" cx="127" cy="-315.76" rx="18" ry="18"/>
<text text-anchor="middle" x="127" y="-310.34" font-family="Times New Roman,serif" font-size="14.00">1</text>
</g>
<!-- 2 -->
<g id="node2" class="node">
<title>2</title>
<ellipse fill="none" stroke="black" cx="99" cy="-243.76" rx="18" ry="18"/>
<text text-anchor="middle" x="99" y="-238.34" font-family="Times New Roman,serif" font-size="14.00">2</text>
</g>
<!-- 1&#45;&gt;2 -->
<g id="edge1" class="edge">
<title>1&#45;&gt;2</title>
<path fill="none" stroke="black" d="M120.51,-298.53C117.29,-290.49 113.32,-280.57 109.68,-271.46"/>
<polygon fill="black" stroke="black" points="112.98,-270.3 106.02,-262.32 106.49,-272.9 112.98,-270.3"/>
</g>
<!-- 3 -->
<g id="node3" class="node">
<title>3</title>
<ellipse fill="none" stroke="black" cx="182" cy="-243.76" rx="18" ry="18"/>
<text text-anchor="middle" x="182" y="-238.34" font-family="Times New Roman,serif" font-size="14.00">3</text>
</g>
<!-- 1&#45;&gt;3 -->
<g id="edge2" class="edge">
<title>1&#45;&gt;3</title>
<path fill="none" stroke="black" d="M137.87,-300.93C145.4,-291.35 155.6,-278.36 164.3,-267.29"/>
<polygon fill="black" stroke="black" points="166.8,-269.78 170.22,-259.75 161.29,-265.45 166.8,-269.78"/>
</g>
<!-- 4 -->
<g id="node4" class="node">
<title>4</title>
<ellipse fill="none" stroke="black" cx="18" cy="-170.14" rx="18" ry="18"/>
<text text-anchor="middle" x="18" y="-164.71" font-family="Times New Roman,serif" font-size="14.00">4</text>
</g>
<!-- 2&#45;&gt;4 -->
<g id="edge3" class="edge">
<title>2&#45;&gt;4</title>
<path fill="none" stroke="black" d="M85.99,-231.25C73.54,-220.25 54.54,-203.45 39.79,-190.41"/>
<polygon fill="black" stroke="black" points="42.19,-187.86 32.38,-183.86 37.56,-193.1 42.19,-187.86"/>
</g>
<!-- 5 -->
<g id="node5" class="node">
<title>5</title>
<ellipse fill="none" stroke="black" cx="72" cy="-170.14" rx="18" ry="18"/>
<text text-anchor="middle" x="72" y="-164.71" font-family="Times New Roman,serif" font-size="14.00">5</text>
</g>
<!-- 2&#45;&gt;5 -->
<g id="edge4" class="edge">
<title>2&#45;&gt;5</title>
<path fill="none" stroke="black" d="M92.87,-226.51C89.7,-218.08 85.74,-207.58 82.12,-197.98"/>
<polygon fill="black" stroke="black" points="85.44,-196.86 78.64,-188.74 78.89,-199.33 85.44,-196.86"/>
</g>
<!-- 6 -->
<g id="node6" class="node">
<title>6</title>
<ellipse fill="none" stroke="black" cx="126" cy="-170.14" rx="18" ry="18"/>
<text text-anchor="middle" x="126" y="-164.71" font-family="Times New Roman,serif" font-size="14.00">6</text>
</g>
<!-- 2&#45;&gt;6 -->
<g id="edge5" class="edge">
<title>2&#45;&gt;6</title>
<path fill="none" stroke="black" d="M105.13,-226.51C108.3,-218.08 112.26,-207.58 115.88,-197.98"/>
<polygon fill="black" stroke="black" points="119.11,-199.33 119.36,-188.74 112.56,-196.86 119.11,-199.33"/>
</g>
<!-- 12 -->
<g id="node12" class="node">
<title>12</title>
<ellipse fill="none" stroke="black" cx="182" cy="-170.14" rx="19.63" ry="19.63"/>
<text text-anchor="middle" x="182" y="-164.71" font-family="Times New Roman,serif" font-size="14.00">12</text>
</g>
<!-- 3&#45;&gt;12 -->
<g id="edge11" class="edge">
<title>3&#45;&gt;12</title>
<path fill="none" stroke="black" d="M182,-225.42C182,-218.25 182,-209.71 182,-201.55"/>
<polygon fill="black" stroke="black" points="185.5,-201.59 182,-191.59 178.5,-201.59 185.5,-201.59"/>
</g>
<!-- 13 -->
<g id="node13" class="node">
<title>13</title>
<ellipse fill="none" stroke="black" cx="239" cy="-170.14" rx="19.63" ry="19.63"/>
<text text-anchor="middle" x="239" y="-164.71" font-family="Times New Roman,serif" font-size="14.00">13</text>
</g>
<!-- 3&#45;&gt;13 -->
<g id="edge12" class="edge">
<title>3&#45;&gt;13</title>
<path fill="none" stroke="black" d="M192.99,-228.95C200.62,-219.36 210.99,-206.33 219.95,-195.07"/>
<polygon fill="black" stroke="black" points="222.63,-197.33 226.12,-187.32 217.15,-192.97 222.63,-197.33"/>
</g>
<!-- 7 -->
<g id="node7" class="node">
<title>7</title>
<ellipse fill="none" stroke="black" cx="18" cy="-94.88" rx="18" ry="18"/>
<text text-anchor="middle" x="18" y="-89.46" font-family="Times New Roman,serif" font-size="14.00">7</text>
</g>
<!-- 4&#45;&gt;7 -->
<g id="edge6" class="edge">
<title>4&#45;&gt;7</title>
<path fill="none" stroke="black" d="M18,-151.78C18,-143.72 18,-133.91 18,-124.78"/>
<polygon fill="black" stroke="black" points="21.5,-124.88 18,-114.88 14.5,-124.88 21.5,-124.88"/>
</g>
<!-- 9 -->
<g id="node9" class="node">
<title>9</title>
<ellipse fill="none" stroke="black" cx="126" cy="-94.88" rx="18" ry="18"/>
<text text-anchor="middle" x="126" y="-89.46" font-family="Times New Roman,serif" font-size="14.00">9</text>
</g>
<!-- 6&#45;&gt;9 -->
<g id="edge8" class="edge">
<title>6&#45;&gt;9</title>
<path fill="none" stroke="black" d="M126,-151.78C126,-143.72 126,-133.91 126,-124.78"/>
<polygon fill="black" stroke="black" points="129.5,-124.88 126,-114.88 122.5,-124.88 129.5,-124.88"/>
</g>
<!-- 8 -->
<g id="node8" class="node">
<title>8</title>
<ellipse fill="none" stroke="black" cx="18" cy="-19.63" rx="18" ry="18"/>
<text text-anchor="middle" x="18" y="-14.2" font-family="Times New Roman,serif" font-size="14.00">8</text>
</g>
<!-- 7&#45;&gt;8 -->
<g id="edge7" class="edge">
<title>7&#45;&gt;8</title>
<path fill="none" stroke="black" d="M18,-76.52C18,-68.46 18,-58.66 18,-49.53"/>
<polygon fill="black" stroke="black" points="21.5,-49.63 18,-39.63 14.5,-49.63 21.5,-49.63"/>
</g>
<!-- 10 -->
<g id="node10" class="node">
<title>10</title>
<ellipse fill="none" stroke="black" cx="100" cy="-19.63" rx="19.63" ry="19.63"/>
<text text-anchor="middle" x="100" y="-14.2" font-family="Times New Roman,serif" font-size="14.00">10</text>
</g>
<!-- 9&#45;&gt;10 -->
<g id="edge9" class="edge">
<title>9&#45;&gt;10</title>
<path fill="none" stroke="black" d="M120.23,-77.62C117.28,-69.32 113.61,-58.97 110.21,-49.38"/>
<polygon fill="black" stroke="black" points="113.54,-48.32 106.9,-40.06 106.95,-50.66 113.54,-48.32"/>
</g>
<!-- 11 -->
<g id="node11" class="node">
<title>11</title>
<ellipse fill="none" stroke="black" cx="157" cy="-19.63" rx="19.63" ry="19.63"/>
<text text-anchor="middle" x="157" y="-14.2" font-family="Times New Roman,serif" font-size="14.00">11</text>
</g>
<!-- 9&#45;&gt;11 -->
<g id="edge10" class="edge">
<title>9&#45;&gt;11</title>
<path fill="none" stroke="black" d="M132.73,-77.99C136.36,-69.4 140.96,-58.54 145.17,-48.58"/>
<polygon fill="black" stroke="black" points="148.26,-50.26 148.94,-39.68 141.82,-47.53 148.26,-50.26"/>
</g>
<!-- 14 -->
<g id="node14" class="node">
<title>14</title>
<ellipse fill="none" stroke="black" cx="210" cy="-94.88" rx="19.63" ry="19.63"/>
<text text-anchor="middle" x="210" y="-89.46" font-family="Times New Roman,serif" font-size="14.00">14</text>
</g>
<!-- 13&#45;&gt;14 -->
<g id="edge13" class="edge">
<title>13&#45;&gt;14</title>
<path fill="none" stroke="black" d="M231.98,-151.4C228.76,-143.28 224.87,-133.44 221.26,-124.32"/>
<polygon fill="black" stroke="black" points="224.55,-123.12 217.61,-115.11 218.04,-125.7 224.55,-123.12"/>
</g>
<!-- 15 -->
<g id="node15" class="node">
<title>15</title>
<ellipse fill="none" stroke="black" cx="267" cy="-94.88" rx="19.63" ry="19.63"/>
<text text-anchor="middle" x="267" y="-89.46" font-family="Times New Roman,serif" font-size="14.00">15</text>
</g>
<!-- 13&#45;&gt;15 -->
<g id="edge14" class="edge">
<title>13&#45;&gt;15</title>
<path fill="none" stroke="black" d="M245.78,-151.4C248.88,-143.28 252.64,-133.44 256.13,-124.32"/>
<polygon fill="black" stroke="black" points="259.35,-125.71 259.65,-115.12 252.81,-123.21 259.35,-125.71"/>
</g>
</g>
</svg>
